# xmcd
#
# Track frame offsets: 
#        150
#        14641
#        34596
#        47880
#        67767
#        88060
#        99274
#        112183
#        125602
#        140449
#        157387
#        177913
#        193907
#        219773
#        238738
#        250985
#
# Disc length: 3571 seconds
#
# Revision: 0
# Processed by: cddbd v1.5.1PL2 Copyright (c) Steve Scherf et al.
# Submitted via: ExactAudioCopy v0.95b3
#
DISCID=e80df110
DTITLE=Lance and Donna - The Sun Will Shine
DYEAR=2005
DGENRE=Blues
TTITLE0=Bad Water
TTITLE1=Full House
TTITLE2=Bad Luck
TTITLE3=Bad
TTITLE4=Twixt There and Yon
TTITLE5=Sugar
TTITLE6=Turtle Stew
TTITLE7=Sweet Sugarplum Blues
TTITLE8=Long Gone
TTITLE9=My Time To Die
TTITLE10=I Know Every Train
TTITLE11=The Sun Will Shine
TTITLE12=Evil
TTITLE13=Last Night
TTITLE14=Here We Go Again
TTITLE15=Aba Daba Honeymoon
EXTD=
EXTT0=
EXTT1=
EXTT2=
EXTT3=
EXTT4=
EXTT5=
EXTT6=
EXTT7=
EXTT8=
EXTT9=
EXTT10=
EXTT11=
EXTT12=
EXTT13=
EXTT14=
EXTT15=
PLAYORDER=
